<?xml version="1.0" encoding="UTF-8" standalone="no"?>
<svg width="18px" height="18px" viewBox="0 0 18 18" version="1.1" xmlns="http://www.w3.org/2000/svg" xmlns:xlink="http://www.w3.org/1999/xlink" xmlns:sketch="http://www.bohemiancoding.com/sketch/ns">
    <!-- Generator: Sketch 3.3 (11970) - http://www.bohemiancoding.com/sketch -->
    <title>Shape</title>
    <desc>Created with Sketch.</desc>
    <defs></defs>
    <g id="Page-1" stroke="none" stroke-width="1" fill="none" fill-rule="evenodd" sketch:type="MSPage">
        <g id="Desktop" sketch:type="MSArtboardGroup" transform="translate(-982.000000, -25.000000)" fill="#3344BA">
            <g id="Shape" sketch:type="MSLayerGroup" transform="translate(982.000000, 25.000000)">
                <path d="M7.1,12.6 L8.5,14 L13.5,9 L8.5,4 L7.1,5.4 L9.7,8 L0,8 L0,10 L9.7,10 L7.1,12.6 L7.1,12.6 Z M16,0 L2,0 C0.9,0 0,0.9 0,2 L0,6 L2,6 L2,2 L16,2 L16,16 L2,16 L2,12 L0,12 L0,16 C0,17.1 0.9,18 2,18 L16,18 C17.1,18 18,17.1 18,16 L18,2 C18,0.9 17.1,0 16,0 L16,0 Z" sketch:type="MSShapeGroup"></path>
            </g>
        </g>
    </g>
</svg>